<svg width="24" height="16" viewBox="0 0 24 16" fill="none" xmlns="http://www.w3.org/2000/svg">
<path d="M20.7923 5.52221C21.5824 6.31224 21.5824 7.59313 20.7923 8.38316C20.0023 9.17319 18.7214 9.17319 17.9314 8.38316C17.1414 7.59313 17.1414 6.31224 17.9314 5.52221C18.7214 4.73218 20.0023 4.73218 20.7923 5.52221" stroke="#B9B9B9" stroke-width="1.5" stroke-linecap="round" stroke-linejoin="round"/>
<path d="M14.2024 1.91236C15.4189 3.12884 15.4189 5.10115 14.2024 6.31764C12.9859 7.53412 11.0136 7.53412 9.79713 6.31764C8.58065 5.10116 8.58065 3.12885 9.79713 1.91236C11.0136 0.69588 12.9859 0.69588 14.2024 1.91236" stroke="#B9B9B9" stroke-width="1.5" stroke-linecap="round" stroke-linejoin="round"/>
<path d="M6.06871 5.52221C6.85874 6.31224 6.85874 7.59313 6.06871 8.38316C5.27868 9.17319 3.99779 9.17319 3.20776 8.38316C2.41773 7.59313 2.41773 6.31224 3.20776 5.52221C3.99779 4.73218 5.27868 4.73218 6.06871 5.52221" stroke="#B9B9B9" stroke-width="1.5" stroke-linecap="round" stroke-linejoin="round"/>
<path d="M23.0002 14.9983V13.9023C23.0002 12.5213 21.8812 11.4023 20.5002 11.4023H19.6992" stroke="#B9B9B9" stroke-width="1.5" stroke-linecap="round" stroke-linejoin="round"/>
<path d="M1 14.9983V13.9023C1 12.5213 2.119 11.4023 3.5 11.4023H4.301" stroke="#B9B9B9" stroke-width="1.5" stroke-linecap="round" stroke-linejoin="round"/>
<path d="M17.3392 14.9994V13.3984C17.3392 11.4654 15.7722 9.89844 13.8392 9.89844H10.1602C8.22716 9.89844 6.66016 11.4654 6.66016 13.3984V14.9994" stroke="#B9B9B9" stroke-width="1.5" stroke-linecap="round" stroke-linejoin="round"/>
</svg>
