<svg width="24" height="25" viewBox="0 0 24 25" fill="none" xmlns="http://www.w3.org/2000/svg">
<rect x="13.001" y="15.5039" width="5.00208" height="3.00125" rx="1" stroke="#B9B9B9" stroke-width="1.5" stroke-linecap="round" stroke-linejoin="round"/>
<path fill-rule="evenodd" clip-rule="evenodd" d="M8.99901 21.5052H2.4963C2.22004 21.5052 1.99609 21.2812 1.99609 21.0049V20.5988C1.99939 19.4432 2.93537 18.5072 4.09097 18.5039H7.40435C8.55994 18.5072 9.49592 19.4432 9.49922 20.5988V21.0049C9.49922 21.2812 9.27527 21.5052 8.99901 21.5052Z" stroke="#B9B9B9" stroke-width="1.5" stroke-linecap="round" stroke-linejoin="round"/>
<path fill-rule="evenodd" clip-rule="evenodd" d="M5.74783 16.0037C4.64303 16.0015 3.7489 15.1046 3.75 13.9998C3.75111 12.895 4.64703 12 5.75183 12C6.85664 12 7.75256 12.895 7.75367 13.9998C7.75477 15.1046 6.86064 16.0015 5.75584 16.0037H5.74783Z" stroke="#B9B9B9" stroke-width="1.5" stroke-linecap="round" stroke-linejoin="round"/>
<path d="M3.99707 9.49859V5.49693C3.99707 4.3919 4.89287 3.49609 5.9979 3.49609H20.0037C21.1088 3.49609 22.0046 4.3919 22.0046 5.49693V16.5015C22.0046 17.6065 21.1088 18.5023 20.0037 18.5023H12.0004" stroke="#B9B9B9" stroke-width="1.5" stroke-linecap="round" stroke-linejoin="round"/>
</svg>
