<svg width="22" height="22" viewBox="0 0 22 22" fill="none" xmlns="http://www.w3.org/2000/svg">
<path d="M15.3816 5.14308C16.192 4.99676 17.0411 4.91177 17.9715 4.88023C18.4692 4.86358 18.8863 5.25786 18.8863 5.75552V16.1267C18.8863 16.6016 18.5069 16.9941 18.0329 17.0011C15.3238 17.0423 13.284 17.5417 11.0007 18.884C8.71745 17.5417 6.67773 17.0423 3.96862 17.002C3.49462 16.995 3.11523 16.6016 3.11523 16.1267V5.75552C3.11523 5.26575 3.5174 4.86358 4.0063 4.87935C6.69701 4.9661 8.72797 5.47252 11.0007 6.74559" stroke="#B9B9B9" stroke-width="1.31425" stroke-linecap="round" stroke-linejoin="round"/>
<path fill-rule="evenodd" clip-rule="evenodd" d="M15.3818 13.8371V3.12507C15.3818 2.48634 14.7107 2.04037 14.1403 2.32688C12.6017 3.09791 11.305 4.66537 11.001 6.27928V18.8856C11.3479 17.0465 12.982 15.2679 14.7957 14.6589C15.1479 14.5407 15.3818 14.2086 15.3818 13.8371Z" stroke="#B9B9B9" stroke-width="1.31425" stroke-linecap="round" stroke-linejoin="round"/>
</svg>
